<?xml version="1.0" encoding="utf-8"?><svg xmlns="http://www.w3.org/2000/svg" xmlns:xlink="http://www.w3.org/1999/xlink"><symbol viewBox="0 0 348.077 348.077" id="call-answer" xmlns="http://www.w3.org/2000/svg"><path d="M340.273 275.083l-53.755-53.761c-10.707-10.664-28.438-10.34-39.518.744l-27.082 27.076a792.327 792.327 0 01-5.344-2.973c-17.102-9.476-40.509-22.464-65.14-47.113-24.704-24.701-37.704-48.144-47.209-65.257-1.003-1.813-1.964-3.561-2.913-5.221l18.176-18.149 8.936-8.947c11.097-11.1 11.403-28.826.721-39.521L73.39 8.194c-10.682-10.68-28.421-10.356-39.518.744l-15.15 15.237.414.411c-5.08 6.482-9.325 13.958-12.484 22.02C3.74 54.28 1.927 61.603 1.098 68.941-6 127.785 20.89 181.564 93.866 254.541c100.875 100.868 182.167 93.248 185.674 92.876 7.638-.913 14.958-2.738 22.397-5.627 7.992-3.122 15.463-7.361 21.941-12.43l.331.294 15.348-15.029c11.074-11.098 11.393-28.83.716-39.542z"/></symbol><symbol viewBox="0 0 612 612" id="email-filled" xmlns="http://www.w3.org/2000/svg"><path d="M306.768 346.814h.131c4.615 0 9.176-1.339 12.866-3.777l1.001-.643c.218-.142.446-.271.675-.424l11.658-9.645 278.259-229.624c-.576-.795-1.557-1.339-2.602-1.339H3.233c-.751 0-1.448.272-2.003.729l291.125 239.954c3.669 3.038 8.904 4.769 14.413 4.769zM0 133.899v340.37l208.55-168.471L0 133.899zm403.668 173.042L612 474.356V135.031l-208.332 171.91zm-66.237 54.644c-8.305 6.814-19.168 10.57-30.576 10.57-11.451 0-22.304-3.734-30.587-10.516l-47.765-39.394L0 506.806v.587c0 1.753 1.502 3.244 3.276 3.244h605.491c1.741 0 3.232-1.491 3.232-3.255v-.544L383.693 323.4l-46.262 38.185z"/></symbol><symbol viewBox="0 0 97.713 97.713" id="filled-point" xmlns="http://www.w3.org/2000/svg"><path d="M48.855 0C29.021 0 12.883 16.138 12.883 35.974c0 5.174 1.059 10.114 3.146 14.684 8.994 19.681 26.238 40.46 31.31 46.359a2.003 2.003 0 003.034 0c5.07-5.898 22.314-26.676 31.311-46.359 2.088-4.57 3.146-9.51 3.146-14.684C84.828 16.138 68.69 0 48.855 0zm0 54.659c-10.303 0-18.686-8.383-18.686-18.686 0-10.304 8.383-18.687 18.686-18.687s18.686 8.383 18.686 18.687c.001 10.303-8.382 18.686-18.686 18.686z"/></symbol><symbol viewBox="0 0 492.719 492.719" id="heart" xmlns="http://www.w3.org/2000/svg"><path d="M492.719 166.008c0-73.486-59.573-133.056-133.059-133.056-47.985 0-89.891 25.484-113.302 63.569-23.408-38.085-65.332-63.569-113.316-63.569C59.556 32.952 0 92.522 0 166.008c0 40.009 17.729 75.803 45.671 100.178l188.545 188.553a17.17 17.17 0 0024.284 0l188.545-188.553c27.943-24.375 45.674-60.169 45.674-100.178z"/></symbol><symbol viewBox="0 0 792 792" id="mobile-phone" xmlns="http://www.w3.org/2000/svg"><path d="M521.806 792s71.889 0 71.889-71.997V71.997C593.694 0 521.806 0 521.806 0H270.194s-71.889 0-71.889 71.997v648.006C198.306 792 270.194 792 270.194 792h251.612zM396 762.022c-19.841 0-35.944-16.104-35.944-35.944 0-19.842 16.103-35.944 35.944-35.944 19.842 0 35.944 16.103 35.944 35.944S415.842 762.022 396 762.022zM342.083 43.888c0-4.457 2.121-7.944 4.78-7.944h98.272c2.624 0 4.781 3.559 4.781 7.944v2.121c0 4.457-2.157 7.944-4.781 7.944h-98.272c-2.624 0-4.78-3.559-4.78-7.944v-2.121zM234.25 89.861h323.5v575.111h-323.5V89.861z"/></symbol></svg>